<svg width="18" height="18" viewBox="0 0 18 18" fill="none" xmlns="http://www.w3.org/2000/svg">
<path d="M8.99996 6.32211C7.5254 6.32211 6.32205 7.52546 6.32205 9.00001C6.32205 10.4746 7.5254 11.6779 8.99996 11.6779C10.4745 11.6779 11.6779 10.4746 11.6779 9.00001C11.6779 7.52546 10.4745 6.32211 8.99996 6.32211ZM17.0317 9.00001C17.0317 7.89108 17.0417 6.7922 16.9794 5.68528C16.9171 4.39956 16.6238 3.25849 15.6837 2.31832C14.7415 1.37613 13.6024 1.08483 12.3167 1.02256C11.2078 0.960279 10.1089 0.970324 9.00197 0.970324C7.89304 0.970324 6.79415 0.960279 5.68723 1.02256C4.40152 1.08483 3.26045 1.37814 2.32027 2.31832C1.37808 3.2605 1.08679 4.39956 1.02451 5.68528C0.962233 6.79421 0.972277 7.89309 0.972277 9.00001C0.972277 10.1069 0.962233 11.2078 1.02451 12.3147C1.08679 13.6005 1.38009 14.7415 2.32027 15.6817C3.26246 16.6239 4.40152 16.9152 5.68723 16.9775C6.79616 17.0397 7.89505 17.0297 9.00197 17.0297C10.1109 17.0297 11.2098 17.0397 12.3167 16.9775C13.6024 16.9152 14.7435 16.6219 15.6837 15.6817C16.6259 14.7395 16.9171 13.6005 16.9794 12.3147C17.0437 11.2078 17.0317 10.1089 17.0317 9.00001V9.00001ZM8.99996 13.1203C6.71982 13.1203 4.87964 11.2801 4.87964 9.00001C4.87964 6.71988 6.71982 4.8797 8.99996 4.8797C11.2801 4.8797 13.1203 6.71988 13.1203 9.00001C13.1203 11.2801 11.2801 13.1203 8.99996 13.1203ZM13.289 5.67323C12.7567 5.67323 12.3267 5.24331 12.3267 4.71095C12.3267 4.17858 12.7567 3.74867 13.289 3.74867C13.8214 3.74867 14.2513 4.17858 14.2513 4.71095C14.2515 4.83736 14.2267 4.96256 14.1784 5.07938C14.1301 5.1962 14.0592 5.30235 13.9698 5.39174C13.8804 5.48112 13.7743 5.552 13.6575 5.6003C13.5406 5.6486 13.4154 5.67338 13.289 5.67323V5.67323Z" fill="white"/>
</svg>
