<svg width="20" height="16" viewBox="0 0 20 16" fill="none" xmlns="http://www.w3.org/2000/svg">
<path d="M19.9799 1.946C19.2641 2.26315 18.4953 2.47743 17.687 2.57429C18.521 2.07526 19.145 1.28983 19.4424 0.364576C18.6589 0.829996 17.8013 1.1576 16.907 1.33315C16.3056 0.691032 15.5091 0.265427 14.641 0.122411C13.7729 -0.0206049 12.8819 0.126969 12.1064 0.542222C11.3308 0.957474 10.714 1.61717 10.3517 2.41889C9.98946 3.22062 9.90204 4.1195 10.103 4.976C8.51531 4.89629 6.96212 4.48362 5.54423 3.76478C4.12634 3.04594 2.87544 2.037 1.87272 0.803434C1.52986 1.39486 1.33272 2.08058 1.33272 2.81086C1.33234 3.46829 1.49423 4.11564 1.80405 4.69549C2.11386 5.27534 2.562 5.76975 3.10872 6.13486C2.47467 6.11469 1.85461 5.94336 1.30015 5.63515V5.68658C1.30009 6.60864 1.61903 7.50233 2.20288 8.216C2.78672 8.92967 3.5995 9.41937 4.50329 9.602C3.91511 9.76119 3.29844 9.78464 2.69986 9.67058C2.95486 10.464 3.45157 11.1577 4.12046 11.6548C4.78935 12.1519 5.59694 12.4273 6.43015 12.4426C5.01572 13.5529 3.26891 14.1552 1.47072 14.1526C1.15219 14.1527 0.833929 14.1341 0.517578 14.0969C2.34284 15.2704 4.46758 15.8933 6.63758 15.8909C13.9833 15.8909 17.999 9.80686 17.999 4.53029C17.999 4.35886 17.9947 4.18572 17.987 4.01429C18.7681 3.44941 19.4424 2.74992 19.9781 1.94858L19.9799 1.946V1.946Z" fill="white"/>
</svg>
