<svg width="200" height="200" viewBox="0 0 200 200" fill="none" xmlns="http://www.w3.org/2000/svg">
    <path d="M45.0919 65.5377C75.4169 35.7693 124.583 35.7693 154.908 65.5377L158.558 69.1203C160.074 70.6087 160.074 73.0219 158.558 74.5104L146.073 86.7659C145.315 87.5102 144.086 87.5102 143.328 86.7659L138.305 81.8358C117.15 61.0686 82.8502 61.0686 61.6948 81.8358L56.3162 87.1156C55.5581 87.8598 54.3289 87.8598 53.5708 87.1156L41.0861 74.86C39.5698 73.3716 39.5698 70.9584 41.0861 69.47L45.0919 65.5377ZM180.728 90.8835L191.839 101.791C193.356 103.279 193.356 105.693 191.839 107.181L141.737 156.364C140.221 157.853 137.763 157.853 136.246 156.364C136.246 156.364 136.246 156.364 136.246 156.364L100.687 121.458C100.308 121.085 99.6931 121.085 99.314 121.458C99.314 121.458 99.314 121.458 99.314 121.458L63.7552 156.364C62.2389 157.853 59.7806 157.853 58.2643 156.365C58.2643 156.364 58.2643 156.364 58.2643 156.364L8.16062 107.18C6.64438 105.692 6.64438 103.279 8.16062 101.79L19.2721 90.8829C20.7883 89.3945 23.2467 89.3945 24.7629 90.8829L60.323 125.79C60.7021 126.162 61.3166 126.162 61.6957 125.79C61.6957 125.79 61.6957 125.79 61.6957 125.79L97.254 90.8829C98.7702 89.3944 101.229 89.3944 102.745 90.8828C102.745 90.8828 102.745 90.8828 102.745 90.8828L138.305 125.79C138.684 126.162 139.299 126.162 139.678 125.79L175.237 90.8835C176.753 89.3951 179.212 89.3951 180.728 90.8835Z"
          fill="#3B99FC"/>
</svg>
