<svg width="22" height="22" viewBox="0 0 22 18" fill="none" xmlns="http://www.w3.org/2000/svg">
<path d="M18.1288 1.56458C16.8174 0.973155 15.4117 0.536012 13.9417 0.287441C13.9286 0.284928 13.9151 0.286547 13.9029 0.292076C13.8908 0.297604 13.8807 0.306768 13.874 0.318298C13.694 0.634584 13.4934 1.04687 13.3528 1.37258C11.7938 1.13964 10.2088 1.13964 8.64971 1.37258C8.49314 1.01161 8.31658 0.659633 8.12085 0.318298C8.11421 0.306626 8.10418 0.297255 8.09208 0.291435C8.07998 0.285616 8.0664 0.283624 8.05314 0.285726C6.58399 0.534298 5.17828 0.971441 3.86599 1.56373C3.8547 1.56846 3.84513 1.57654 3.83856 1.58687C1.17114 5.5083 0.439993 9.33287 0.799136 13.1094C0.800136 13.1187 0.803007 13.1276 0.807575 13.1357C0.812143 13.1438 0.818312 13.1509 0.825708 13.1566C2.38262 14.2901 4.11914 15.1536 5.96256 15.7109C5.97541 15.7148 5.98916 15.7148 6.002 15.7108C6.01485 15.7069 6.0262 15.6991 6.03456 15.6886C6.43056 15.1572 6.78371 14.5957 7.08542 14.006C7.10342 13.9717 7.08628 13.9306 7.05028 13.9169C6.49657 13.7083 5.96007 13.4567 5.44571 13.1643C5.43646 13.159 5.42868 13.1515 5.42304 13.1425C5.41741 13.1335 5.4141 13.1232 5.41342 13.1126C5.41274 13.102 5.41471 13.0913 5.41915 13.0817C5.42359 13.072 5.43036 13.0636 5.43885 13.0572C5.54685 12.9774 5.65485 12.8943 5.75771 12.8112C5.76697 12.8037 5.77812 12.7989 5.78992 12.7974C5.80173 12.7959 5.81372 12.7977 5.82456 12.8026C9.19056 14.3146 12.836 14.3146 16.1626 12.8026C16.1734 12.7974 16.1856 12.7954 16.1975 12.7967C16.2095 12.7981 16.2208 12.8028 16.2303 12.8103C16.3331 12.8943 16.4403 12.9774 16.5491 13.0572C16.5577 13.0634 16.5646 13.0717 16.5692 13.0813C16.5738 13.0909 16.5759 13.1015 16.5754 13.1121C16.5749 13.1227 16.5717 13.133 16.5663 13.1422C16.5608 13.1513 16.5531 13.1589 16.544 13.1643C16.0314 13.4592 15.4983 13.7086 14.9386 13.916C14.93 13.9191 14.9221 13.924 14.9156 13.9304C14.909 13.9368 14.9039 13.9445 14.9006 13.9531C14.8973 13.9616 14.8958 13.9707 14.8963 13.9798C14.8968 13.989 14.8992 13.9979 14.9034 14.006C15.212 14.5949 15.5651 15.1554 15.9534 15.6877C15.9615 15.6986 15.9727 15.7068 15.9856 15.7111C15.9985 15.7154 16.0124 15.7156 16.0254 15.7117C17.872 15.156 19.6114 14.2921 21.17 13.1566C21.1776 13.1513 21.184 13.1444 21.1887 13.1364C21.1934 13.1284 21.1964 13.1195 21.1974 13.1103C21.626 8.74401 20.4791 4.9503 18.1554 1.58858C18.1497 1.57766 18.1403 1.56914 18.1288 1.56458ZM7.58856 10.8097C6.57542 10.8097 5.73971 9.89344 5.73971 8.76972C5.73971 7.64515 6.55914 6.72973 7.58856 6.72973C8.62571 6.72973 9.45371 7.65287 9.43742 8.76972C9.43742 9.8943 8.61799 10.8097 7.58856 10.8097ZM14.4243 10.8097C13.4103 10.8097 12.5754 9.89344 12.5754 8.76972C12.5754 7.64515 13.394 6.72973 14.4243 6.72973C15.4614 6.72973 16.2894 7.65287 16.2731 8.76972C16.2731 9.8943 15.4623 10.8097 14.4243 10.8097Z" fill="black"/>
</svg>
