<svg width="22" height="22" viewBox="0 0 22 22" fill="none" xmlns="http://www.w3.org/2000/svg">
<path fill-rule="evenodd" clip-rule="evenodd" d="M9.2693 0.823272C8.91366 0.878717 8.26267 1.04344 7.82264 1.18938C7.38262 1.33525 6.76948 1.58104 6.46006 1.73561C6.15064 1.89017 5.57197 2.23831 5.17415 2.50925C4.77632 2.7801 4.12339 3.3285 3.72323 3.72782C3.32307 4.12721 2.77624 4.78029 2.50804 5.1792C2.23977 5.57811 1.9019 6.14021 1.75715 6.42831C1.61233 6.71641 1.37114 7.31478 1.22101 7.75801C1.07096 8.20124 0.895589 8.9084 0.831374 9.32947C0.767159 9.75054 0.714436 10.4758 0.714356 10.9412C0.714195 11.4066 0.753416 12.1138 0.801557 12.5127C0.849699 12.9116 1.01679 13.6369 1.17286 14.1244C1.32894 14.612 1.58259 15.2648 1.7365 15.575C1.8904 15.8853 2.11198 16.2421 2.22892 16.3679C2.34594 16.4938 2.53923 16.6479 2.65858 16.7104C2.78484 16.7766 3.10423 16.8233 3.42209 16.8222C3.72267 16.8211 4.10772 16.7879 4.27778 16.7484C4.44776 16.7088 4.67384 16.5945 4.78009 16.4944L4.97322 16.3125V13.4758C4.97322 11.9155 4.99572 10.5262 5.02321 10.3883C5.0507 10.2504 5.16137 10.0493 5.26898 9.94129C5.37668 9.8333 5.60814 9.72072 5.78343 9.69099C5.95863 9.66133 6.44937 9.66318 6.87396 9.6951C7.56273 9.74683 7.67308 9.77738 7.89691 9.9778L8.14782 10.2026L8.17257 13.1158L8.19733 16.029L8.45387 15.973C8.595 15.9423 8.78274 15.8896 8.87115 15.856C8.95955 15.8225 9.10422 15.7145 9.19262 15.6162C9.34718 15.4443 9.35489 15.294 9.39355 11.7108C9.42754 8.55808 9.4523 7.96157 9.55429 7.83835C9.62059 7.75825 9.79122 7.64398 9.93347 7.58434C10.089 7.51915 10.4986 7.47595 10.9608 7.47595C11.4433 7.47595 11.8312 7.51858 12.0028 7.59047C12.1548 7.65413 12.3321 7.81337 12.4021 7.94916C12.5102 8.15877 12.528 8.64866 12.528 11.4207C12.528 14.267 12.5425 14.6483 12.6512 14.6483C12.719 14.6483 12.9468 14.5607 13.1577 14.4536C13.3769 14.3421 13.582 14.1681 13.6371 14.0468C13.7078 13.8914 13.7335 12.7943 13.7335 9.93533C13.7335 7.59716 13.7649 5.95308 13.8119 5.82922C13.8549 5.71551 14.0087 5.54853 14.1534 5.45803C14.3878 5.31161 14.5254 5.29613 15.4079 5.31701L16.3993 5.34038L16.6336 5.60358L16.8679 5.86677V9.12929C16.8679 10.9237 16.8881 12.3918 16.9128 12.3918C16.9375 12.3918 17.1093 12.2744 17.2946 12.1309C17.4799 11.9873 17.8665 11.6706 18.1538 11.4271C18.4412 11.1835 18.9075 10.766 19.1904 10.4993C19.4731 10.2326 19.915 9.75062 20.1723 9.42811C20.443 9.089 20.6787 8.69847 20.7315 8.50183C20.8001 8.24645 20.7995 8.05755 20.7293 7.74278C20.6778 7.5123 20.4806 7.00443 20.291 6.61415C20.1014 6.22386 19.8084 5.6869 19.6398 5.42096C19.4713 5.15502 19.1193 4.68359 18.8577 4.37332C18.5961 4.06306 18.1227 3.57881 17.8058 3.29715C17.4889 3.0155 17.0144 2.63754 16.7515 2.45727C16.4885 2.27691 16.0003 1.98551 15.6665 1.80975C15.3327 1.6339 14.6979 1.36716 14.2559 1.21694C13.8139 1.06673 13.0998 0.890482 12.6692 0.825206C12.2385 0.760011 11.4428 0.710208 10.901 0.714559C10.3592 0.718911 9.62493 0.767909 9.2693 0.823272ZM20.7978 10.8808C20.56 11.2022 20.1168 11.7486 19.8129 12.0952C19.5089 12.4418 18.8938 13.0523 18.4459 13.4519C17.9979 13.8514 17.2336 14.46 16.7474 14.8044C16.2611 15.1486 15.5062 15.6371 15.0697 15.8896C14.6332 16.1422 14.0003 16.4869 13.6633 16.6556C13.3262 16.8244 12.743 17.0928 12.3672 17.2522C11.9915 17.4116 11.3224 17.6733 10.8804 17.8337C10.4384 17.9942 9.66078 18.2458 9.15244 18.3928C8.6441 18.5399 7.81228 18.7543 7.30394 18.8693C6.7956 18.9842 6.07903 19.1294 5.71158 19.192C5.34413 19.2545 5.02466 19.3245 5.00167 19.3476C4.97869 19.3706 5.16217 19.5191 5.40931 19.6777C5.65652 19.8363 6.13874 20.1069 6.48087 20.2791C6.82309 20.4513 7.4466 20.7023 7.86653 20.8368C8.28646 20.9713 8.86512 21.127 9.15244 21.183C9.44097 21.239 10.2686 21.2851 11.0009 21.2857C11.9641 21.2865 12.5089 21.248 12.9915 21.1452C13.3571 21.0672 13.9538 20.9024 14.3176 20.7789C14.6815 20.6554 15.2324 20.4253 15.5418 20.2676C15.8512 20.1099 16.3488 19.8222 16.6475 19.6281C16.9463 19.434 17.4353 19.0599 17.7341 18.7968C18.0331 18.5336 18.4866 18.0797 18.742 17.788C18.9974 17.4963 19.3513 17.0422 19.5286 16.779C19.7059 16.5157 19.9985 16.0102 20.1789 15.6556C20.3593 15.301 20.6138 14.7027 20.7443 14.3259C20.8748 13.9492 21.0325 13.3871 21.0947 13.0768C21.1569 12.7665 21.2315 12.0141 21.2604 11.4046C21.2893 10.7952 21.2943 10.2965 21.2715 10.2965C21.2486 10.2965 21.0355 10.5594 20.7978 10.8808Z" fill="black"/>
</svg>
