<svg width="22" height="22" viewBox="0 0 22 20" fill="none" xmlns="http://www.w3.org/2000/svg">
<path fill-rule="evenodd" clip-rule="evenodd" d="M10.2625 1.08974C9.97925 1.34296 9.96043 1.39918 9.92916 2.08795L9.89604 2.8177L8.7065 2.49579C8.05218 2.31873 7.48891 2.20186 7.45477 2.23611C7.42055 2.27027 7.64518 2.82794 7.95375 3.47535C8.26241 4.12267 8.66028 5.10933 8.83786 5.66784C9.01553 6.22634 9.21017 6.95333 9.27041 7.28335C9.33065 7.61338 9.38295 8.23651 9.38674 8.66808C9.39116 9.16732 9.33425 9.65419 9.23037 10.0067C9.14052 10.3113 8.90197 10.8893 8.70004 11.291C8.4982 11.6928 8.12514 12.3458 7.87109 12.7422C7.61695 13.1386 7.43549 13.5058 7.46778 13.558C7.50311 13.6153 8.00098 13.6531 8.72024 13.6531H9.91403V14.5763V15.4994L8.69174 15.4989C8.01952 15.4986 7.31502 15.4555 7.12637 15.403C6.93772 15.3506 6.65655 15.201 6.50166 15.0705C6.34668 14.9401 6.17095 14.7443 6.11099 14.6355C6.05112 14.5268 5.95537 14.2093 5.89826 13.93L5.79448 13.4223L3.36844 13.3977C1.62365 13.3799 0.906048 13.4033 0.812785 13.4807C0.713987 13.5627 0.697659 13.7226 0.74406 14.1516C0.777546 14.4613 0.90199 15.0263 1.02062 15.4071C1.13916 15.7879 1.36784 16.3072 1.52873 16.561C1.6897 16.8149 1.95621 17.1804 2.12115 17.3732C2.28609 17.5661 2.64862 17.9006 2.92666 18.1167C3.20479 18.3328 3.68651 18.6238 3.99711 18.7633C4.30771 18.9028 4.8553 19.0782 5.21387 19.153C5.7503 19.2649 6.72721 19.2845 10.7266 19.2636L15.5873 19.2382L16.0486 19.0114C16.3022 18.8865 16.7076 18.5868 16.9493 18.3452C17.1909 18.1036 17.8192 17.2467 18.3455 16.4411C18.8717 15.6355 19.4612 14.8453 19.6555 14.6851C19.8497 14.5248 20.2903 14.2456 20.6346 14.0646L21.2606 13.7354V13.1457C21.2606 12.8215 21.2172 12.5293 21.164 12.4965C21.111 12.4636 19.9382 12.7609 18.558 13.157L16.0486 13.8772L15.3959 14.4929C15.0369 14.8316 14.601 15.1849 14.4273 15.2779C14.1844 15.408 13.8501 15.4554 12.9813 15.4828L11.8512 15.5184V14.5858V13.6531H12.6258H13.4003L14.0964 12.9126C14.4792 12.5053 14.9986 11.8638 15.2506 11.4867C15.5025 11.1097 15.7956 10.5689 15.9017 10.2851C16.0229 9.96096 16.0939 9.5556 16.0927 9.19539C16.0915 8.83194 16.0105 8.39427 15.8714 8.00009C15.7509 7.65806 15.4217 7.03493 15.1402 6.61536C14.8586 6.19579 14.4005 5.59971 14.1223 5.29082C13.8441 4.98184 13.2661 4.43146 12.8378 4.06765C12.4096 3.70383 12.0125 3.40611 11.9552 3.40611C11.8849 3.40611 11.8512 3.10415 11.8512 2.4741C11.8512 1.77029 11.8136 1.47839 11.6977 1.28194C11.6132 1.13876 11.4452 0.976563 11.3243 0.921451C11.2035 0.866339 10.9826 0.821289 10.8337 0.821289C10.6648 0.821289 10.4495 0.922466 10.2625 1.08974ZM4.13779 7.90528C2.91421 9.82267 1.93305 11.444 1.95731 11.5083C1.99181 11.5994 2.51505 11.6199 4.31795 11.6007L6.63441 11.576L6.98394 10.976C7.17618 10.6459 7.4223 10.1474 7.53079 9.86818C7.67765 9.49052 7.72792 9.15947 7.72728 8.57577C7.72663 8.02612 7.65532 7.52651 7.48918 6.90772C7.35884 6.42187 7.11189 5.6743 6.9404 5.24633C6.769 4.81835 6.56882 4.45721 6.49557 4.44374C6.40997 4.42786 5.56903 5.66248 4.13779 7.90528Z" fill="black"/>
</svg>
